<?xml version="1.0" standalone="no"?>
<!DOCTYPE svg PUBLIC "-//W3C//DTD SVG 20010904//EN"
 "http://www.w3.org/TR/2001/REC-SVG-20010904/DTD/svg10.dtd">
<svg version="1.0" xmlns="http://www.w3.org/2000/svg"
 width="154.000000pt" height="134.000000pt" viewBox="0 0 154.000000 134.000000"
 preserveAspectRatio="xMidYMid meet">

<g transform="translate(0.000000,134.000000) scale(0.100000,-0.100000)"
fill="#000000" stroke="none">
<path d="M557 1248 c-18 -35 -108 -196 -199 -358 -91 -162 -200 -358 -243
-435 -42 -77 -81 -144 -86 -150 -21 -22 -1 -25 142 -23 l152 3 56 105 c32 58
128 234 214 391 l157 287 -72 120 c-40 67 -76 121 -80 122 -4 0 -22 -28 -41
-62z"/>
<path d="M858 1070 l-97 -5 117 -190 c64 -105 171 -279 237 -388 l120 -197
143 2 c78 1 142 3 142 5 0 3 -161 265 -288 468 -41 66 -101 164 -134 218 l-59
97 -42 -2 c-23 -2 -86 -5 -139 -8z"/>
<path d="M335 270 c1 -3 34 -60 74 -127 l72 -123 390 0 c215 0 389 4 387 8 -1
5 -36 64 -77 131 l-75 122 -387 -3 c-213 -2 -386 -5 -384 -8z"/>
</g>
</svg>
