<svg xmlns="http://www.w3.org/2000/svg" viewBox="0 0 149.8 129"><path d="M55.7,9.2C53.9,12.7,44.9,28.8,35.8,45s-20,35.8-24.3,43.5-8.1,14.4-8.6,15c-2.1,2.2-.1,2.5,14.2,2.3l15.2-.3L37.9,95c3.2-5.8,12.8-23.4,21.4-39.1L75,27.2l-7.2-12c-4-6.7-7.6-12.1-8-12.2S57.6,5.8,55.7,9.2Z" transform="translate(-2.2 -3)"/><path d="M85.8,27l-9.7.5,11.7,19c6.4,10.5,17.1,27.9,23.7,38.8l12,19.7,14.3-.2c7.8-.1,14.2-.3,14.2-.5s-16.1-26.5-28.8-46.8c-4.1-6.6-10.1-16.4-13.4-21.8L103.9,26l-4.2.2C97.4,26.4,91.1,26.7,85.8,27Z" transform="translate(-2.2 -3)"/><path d="M33.5,107c.1.3,3.4,6,7.4,12.7L48.1,132h39c21.5,0,38.9-.4,38.7-.8s-3.6-6.4-7.7-13.1l-7.5-12.2-38.7.3C50.6,106.4,33.3,106.7,33.5,107Z" transform="translate(-2.2 -3)"/></svg>