<svg xmlns="http://www.w3.org/2000/svg" viewBox="0 0 77 66.31"><path d="M27.5,1.88C26.58,3.68,22,12,17.27,20.28S7,38.68,4.78,42.64.62,50,.36,50.35c-1.08,1.13,0,1.29,7.3,1.18l7.81-.15L18.35,46c1.65-3,6.58-12,11-20.1l8.07-14.75L33.72,5a53.74,53.74,0,0,0-4.11-6.27A13.11,13.11,0,0,0,27.5,1.88Z" transform="translate(0 1.31)"/><path d="M43,11l-5,.26,6,9.76c3.29,5.4,8.79,14.34,12.18,20l6.17,10.12L69.7,51c4-.05,7.3-.16,7.3-.26s-8.28-13.62-14.8-24c-2.11-3.4-5.19-8.43-6.89-11.21l-3-5-2.16.1C48.94,10.72,45.7,10.88,43,11Z" transform="translate(0 1.31)"/><path d="M16.09,52.15c.05.15,1.75,3.08,3.8,6.53L23.6,65h20c11,0,20-.21,19.89-.41s-1.85-3.29-4-6.73l-3.86-6.28-19.89.16C24.88,51.84,16,52,16.09,52.15Z" transform="translate(0 1.31)"/></svg>